<svg width="128" height="128" viewBox="0 0 128 128" fill="none" xmlns="http://www.w3.org/2000/svg">
<g filter="url(#filter0_d_4453_512)">
<path fill-rule="evenodd" clip-rule="evenodd" d="M121 60C121 91.4802 95.4802 117 64 117C32.5198 117 7 91.4802 7 60C7 28.5198 32.5198 3 64 3C95.4802 3 121 28.5198 121 60ZM124 60C124 93.1371 97.1371 120 64 120C30.8629 120 4 93.1371 4 60C4 26.8629 30.8629 0 64 0C97.1371 0 124 26.8629 124 60ZM61.5502 76.888L90.7676 48.888L85.2324 43.112L58.4277 68.7999L43.3496 57.8561L38.6504 64.3305L56.433 77.2372L59.1375 79.2001L61.5502 76.888Z" fill="black"/>
<path d="M58.134 69.2045L58.4721 69.4499L58.7736 69.1609L85.2173 43.819L90.0607 48.8729L61.2043 76.527L59.0932 78.5501L56.7267 76.8326L39.3488 64.2196L43.4605 58.5545L58.134 69.2045ZM64 117.5C95.7564 117.5 121.5 91.7564 121.5 60C121.5 28.2436 95.7564 2.5 64 2.5C32.2436 2.5 6.5 28.2436 6.5 60C6.5 91.7564 32.2436 117.5 64 117.5ZM123.5 60C123.5 92.8609 96.8609 119.5 64 119.5C31.1391 119.5 4.5 92.8609 4.5 60C4.5 27.1391 31.1391 0.5 64 0.5C96.8609 0.5 123.5 27.1391 123.5 60Z" stroke="black"/>
</g>
<defs>
<filter id="filter0_d_4453_512" x="0" y="0" width="128" height="128" filterUnits="userSpaceOnUse" color-interpolation-filters="sRGB">
<feFlood flood-opacity="0" result="BackgroundImageFix"/>
<feColorMatrix in="SourceAlpha" type="matrix" values="0 0 0 0 0 0 0 0 0 0 0 0 0 0 0 0 0 0 127 0" result="hardAlpha"/>
<feOffset dy="4"/>
<feGaussianBlur stdDeviation="2"/>
<feComposite in2="hardAlpha" operator="out"/>
<feColorMatrix type="matrix" values="0 0 0 0 0 0 0 0 0 0 0 0 0 0 0 0 0 0 0.25 0"/>
<feBlend mode="normal" in2="BackgroundImageFix" result="effect1_dropShadow_4453_512"/>
<feBlend mode="normal" in="SourceGraphic" in2="effect1_dropShadow_4453_512" result="shape"/>
</filter>
</defs>
</svg>
